<svg width="32" height="32" viewBox="0 0 32 32" fill="none" xmlns="http://www.w3.org/2000/svg">
<circle cx="16.0013" cy="16.0001" r="13.3333" fill="#1DA1F2"/>
<path fill-rule="evenodd" clip-rule="evenodd" d="M24 10.8724C23.4118 11.1337 22.7787 11.3097 22.1148 11.3891C22.7926 10.9827 23.3131 10.3396 23.5579 9.57323C22.9243 9.94974 22.2209 10.2223 21.4738 10.37C20.8749 9.73216 20.0211 9.33325 19.0777 9.33325C17.265 9.33325 15.7952 10.803 15.7952 12.6157C15.7952 12.8727 15.8245 13.1234 15.8805 13.3639C13.1522 13.2274 10.7337 11.9203 9.11459 9.93428C8.83194 10.419 8.67036 10.9827 8.67036 11.5843C8.67036 12.7229 9.24898 13.7276 10.1305 14.3164C9.59189 14.2993 9.08633 14.1516 8.64316 13.9057V13.9468C8.64316 15.5376 9.77535 16.864 11.276 17.1663C11.0009 17.241 10.7108 17.2815 10.4116 17.2815C10.1999 17.2815 9.994 17.2607 9.79348 17.2223C10.2111 18.5262 11.4238 19.4755 12.8599 19.5022C11.7368 20.3821 10.3214 20.9074 8.78341 20.9074C8.51783 20.9074 8.25652 20.8919 8 20.861C9.4527 21.7922 11.1779 22.3361 13.0317 22.3361C19.0691 22.3361 22.3708 17.3343 22.3708 12.997C22.3708 12.8546 22.3681 12.7128 22.3612 12.5725C23.0033 12.1085 23.56 11.5304 24 10.8724Z" fill="white"/>
</svg>
