<svg width="32" height="32" viewBox="0 0 32 32" fill="none" xmlns="http://www.w3.org/2000/svg">
<circle cx="16.0013" cy="16.0001" r="13.3333" fill="#FF0000"/>
<path fill-rule="evenodd" clip-rule="evenodd" d="M23.5324 10.9187C23.7984 11.1848 23.9901 11.5159 24.0884 11.8791C24.6544 14.1571 24.5236 17.7549 24.0994 20.1209C24.0011 20.4841 23.8094 20.8152 23.5433 21.0813C23.2773 21.3474 22.9461 21.5391 22.5829 21.6374C21.2533 22 15.9016 22 15.9016 22C15.9016 22 10.55 22 9.2203 21.6374C8.85709 21.5391 8.52596 21.3474 8.25989 21.0813C7.99382 20.8152 7.8021 20.4841 7.70382 20.1209C7.13459 17.8527 7.29063 14.2527 7.69283 11.8901C7.79111 11.5269 7.98284 11.1958 8.2489 10.9297C8.51497 10.6636 8.8461 10.4719 9.20931 10.3736C10.539 10.011 15.8906 10 15.8906 10C15.8906 10 21.2423 10 22.5719 10.3626C22.9352 10.4609 23.2663 10.6526 23.5324 10.9187ZM18.6269 16L14.1873 18.5714V13.4286L18.6269 16Z" fill="white"/>
</svg>
