<svg width="56" height="56" viewBox="0 0 56 56" fill="none" xmlns="http://www.w3.org/2000/svg">
<path d="M36.8856 24.8737C35.8697 20.6976 32.1225 17.7631 27.7433 17.7631C21.8741 17.7631 16.005 17.7856 10.1359 17.7856C9.2781 17.7856 8.8492 17.5373 8.62346 16.8827C8.4203 16.2506 8.60089 15.754 9.2781 15.2574C15.689 10.4492 22.1224 5.64107 28.5333 0.855477C30.0909 -0.318348 32.3483 -0.2732 33.951 0.923198C40.4973 5.86681 47.0436 10.8104 53.59 15.754C54.8089 16.6795 55.3507 17.9662 55.3507 19.4787C55.3507 29.4787 55.3507 39.4788 55.3507 49.5015C55.3507 50.6753 54.9444 51.7137 54.1092 52.5489C53.2514 53.4067 52.213 53.813 51.0392 53.8807C50.7909 53.9033 50.5425 53.8807 50.3168 53.8807C35.96 53.8807 21.5807 53.8807 7.20133 53.8807C6.84016 53.8807 6.59185 53.9259 6.38868 54.2871C5.62118 55.6641 4.01846 56.2961 2.52861 55.8672C1.03875 55.4609 0.0229424 54.1291 0.000368804 52.5941C-0.0222047 51.0591 0.993607 49.6821 2.46089 49.2532C3.95074 48.8017 5.55346 49.3886 6.36611 50.743C6.59185 51.1268 6.81758 51.2396 7.24648 51.2396C16.1856 51.2171 25.1022 51.2396 34.0413 51.2396C39.3912 51.2396 43.8608 47.9891 45.5086 42.9552C47.1791 37.831 44.8314 31.8264 40.1136 29.2304C39.775 29.0498 39.6847 29.0498 39.5944 29.4562C38.6011 34.3998 34.4928 38.2824 29.5491 38.9596C29.3911 38.9822 29.2105 38.9596 29.0525 38.9822C28.9171 39.0499 28.7591 39.0274 28.6011 39.0274C22.4611 39.0274 16.3436 39.0274 10.2036 39.0274C10.0682 39.0274 9.93273 39.0499 9.81986 39.0048C9.48126 38.2373 9.63927 37.4698 9.707 36.6797C9.72957 36.454 9.95531 36.3637 10.181 36.3411C10.4293 36.3185 10.6777 36.3185 10.9034 36.3185C16.5016 36.3185 22.0999 36.3185 27.6755 36.3185C27.969 36.3185 28.285 36.3411 28.5785 36.296C30.8584 36.0025 32.8675 35.0996 34.4928 33.4291C35.8246 32.0521 36.6147 30.4043 36.9533 28.5081C36.9758 28.3501 36.9758 28.2146 36.9533 28.0566C36.5695 27.0182 36.6824 25.9347 36.8856 24.8737Z" fill="#1B1C1E"/>
<path d="M28.737 36.383C28.4209 36.5636 28.0823 36.4959 27.7437 36.4959C21.9649 36.4959 16.1861 36.4959 10.4073 36.4959C9.91063 36.4959 9.70747 36.5862 9.75261 37.128C9.79776 37.7375 9.77519 38.3695 9.79776 38.979C9.84291 39.0016 9.84291 39.0242 9.82034 39.0693C9.79776 39.0919 9.79776 39.1144 9.77519 39.1144C9.75262 39.1596 9.70747 39.2047 9.6849 39.2499C9.54946 39.3176 9.61718 39.4531 9.61718 39.5659C9.61718 41.2138 9.61718 42.8617 9.61718 44.5095C9.61718 44.6224 9.54945 44.7804 9.70747 44.8707C9.73004 44.8933 9.77519 44.9158 9.79776 44.961C9.97835 45.1416 10.1815 45.0513 10.3847 45.0513C17.405 45.0513 24.4254 45.0513 31.4232 45.0513C32.1456 45.0513 32.1907 45.0739 32.1682 45.8188C32.1456 46.3831 32.3036 46.9475 32.0553 47.4892C31.8521 47.5795 31.649 47.5344 31.4458 47.5344C23.5676 47.5344 15.6895 47.5344 7.83386 47.5344C7.06636 47.5344 7.13409 47.6021 7.13409 46.8346C7.13409 44.5095 7.13409 42.1845 7.13409 39.8368C7.13409 39.7691 7.02122 39.8368 7.08894 39.8142C7.11151 39.8142 7.13409 39.8142 7.13409 39.8368C7.11151 42.3425 7.13409 44.8256 7.13409 47.3312C7.13409 47.3989 7.11151 47.4892 7.08894 47.557C6.93092 47.3764 6.99864 47.1732 6.99864 46.97C6.99864 44.5547 6.97607 42.1393 6.99864 39.7239C6.99864 39.295 6.8632 39.1822 6.45688 39.1822C4.5607 39.2047 2.66452 39.1822 0.768346 39.1822C0.565184 39.1822 0.362019 39.2499 0.158857 39.1144C0.249151 39.0242 0.362021 39.0467 0.474889 39.0467C2.46136 39.0467 4.44783 39.0467 6.4343 39.0467C6.50202 39.0467 6.56975 39.0693 6.5246 39.0467C4.53813 39.0467 2.46136 39.0467 0.362021 39.0467C0.294301 39.0467 0.204004 39.0693 0.158857 39.1144C0.0234159 39.0242 0.0685644 38.8887 0.0685644 38.7533C0.0685644 36.2025 0.0685644 33.6516 0.0685644 31.1008C0.0685644 30.988 0.0234159 30.83 0.158857 30.7397C0.339446 30.8751 0.565184 30.8074 0.768346 30.8074C2.73224 30.8074 4.69614 30.8074 6.66004 30.8074C4.69614 30.8074 2.73224 30.8074 0.768346 30.8074C0.565184 30.8074 0.362019 30.8751 0.158857 30.7397C0.339446 30.6042 0.565184 30.6719 0.768346 30.6719C2.66452 30.6719 4.5607 30.6494 6.45688 30.6719C6.88578 30.6719 6.99864 30.5365 6.99864 30.1302C6.97607 28.6403 6.97607 27.1279 6.99864 25.6155C6.99864 25.4349 6.93092 25.2317 7.06636 25.0737C7.20181 25.4349 7.11151 25.8186 7.13409 26.1798C7.15666 27.4439 7.13409 28.6855 7.13409 29.9496C7.13409 28.55 7.13409 27.1505 7.13409 25.7509C7.13409 25.1414 7.13408 25.1414 7.74357 25.1414C17.0439 25.1414 26.3442 25.1414 35.6671 25.1414C35.8251 25.1414 35.9831 25.1414 36.1185 25.1414C26.5925 25.1414 17.0213 25.1414 7.45011 25.1414C7.31467 25.1414 7.17923 25.1866 7.06636 25.0737C7.26953 24.8931 7.49526 24.9834 7.721 24.9834C17.2245 24.9834 26.7279 24.9834 36.2314 24.9834C36.4571 24.9834 36.728 25.0963 36.9086 24.848C37.0892 25.0285 36.9537 25.2317 36.9537 25.4123C36.9312 26.1798 36.9537 26.9473 36.9312 27.7148C36.9312 27.8728 37.0666 27.918 37.0892 28.0534C36.9763 28.1437 36.8409 28.1437 36.7054 28.1437C27.8792 28.076 19.0529 28.1211 10.2492 28.1211C10.0912 28.1211 9.95578 28.1437 9.79776 28.0986C9.77519 28.0986 9.77519 28.076 9.75261 28.076C9.73004 28.076 9.73004 28.076 9.70747 28.0534C9.75262 30.5816 9.70747 33.1325 9.73004 35.6607C9.73004 35.8639 9.75262 36.0444 9.9332 36.1573C10.2267 36.2702 10.5201 36.225 10.8361 36.225C16.4795 36.225 22.1229 36.225 27.7437 36.225C28.0598 36.2025 28.4435 36.1122 28.737 36.383Z" fill="#1B1C1E"/>
<path d="M32.1005 44.8242C32.9357 43.2215 34.4933 42.4765 36.1863 42.928C37.6987 43.3343 38.7597 44.8242 38.692 46.4495C38.6242 47.9168 37.5181 49.2486 36.1186 49.5872C34.5836 49.9484 33.0711 49.3389 32.3488 48.0522C32.2585 47.0815 32.3262 46.1334 32.3036 45.2982C32.3036 45.84 32.3036 46.5172 32.3036 47.217C32.3036 47.375 32.4391 47.6007 32.1456 47.6684H32.1231C32.0328 46.7204 32.0553 45.7723 32.1005 44.8242Z" fill="#1B1C1E"/>
<path d="M7.06592 47.5392C7.06592 44.7626 7.06592 41.9861 7.06592 39.2095C7.11107 39.2095 7.13364 39.2095 7.17879 39.2095C7.17879 39.8867 7.17879 40.5639 7.17879 41.2186C7.17879 43.0696 7.20136 44.8981 7.15621 46.7491C7.15621 47.2909 7.29165 47.4489 7.83342 47.4489C15.8922 47.4263 23.9284 47.4263 31.9871 47.4263C32.0097 47.4489 32.0323 47.4715 32.0323 47.5166C32.0323 47.5618 32.0097 47.5617 32.0097 47.5617C23.7929 47.5617 15.5761 47.5617 7.35937 47.5617C7.24651 47.5843 7.15621 47.5617 7.06592 47.5392Z" fill="#1B1C1E"/>
<path d="M32.0099 47.5625C32.0099 47.5173 32.0099 47.4722 32.0099 47.427C32.0099 46.8401 31.9873 46.2532 32.0324 45.6889C32.0776 45.2148 31.9196 45.0568 31.423 45.0568C27.8563 45.0794 24.2897 45.0568 20.7231 45.0568C17.2919 45.0568 13.8607 45.0568 10.4296 45.0568C10.2264 45.0568 9.97808 45.1697 9.82007 44.9214C17.021 44.9214 24.222 44.9214 31.423 44.9214C31.6713 44.9214 31.9196 44.9665 32.1227 44.8311C32.1227 45.7792 32.1227 46.7273 32.1453 47.6754C32.0776 47.6302 32.0324 47.6076 32.0099 47.5625Z" fill="#1B1C1E"/>
<path d="M9.77484 39.0937C9.77484 39.0486 9.77484 39.026 9.77484 38.9808C16.0503 38.9808 22.3257 38.9808 28.6012 38.9808C28.7366 38.9808 28.8721 39.0034 28.9849 39.0034C28.6012 39.1389 28.1949 39.0937 27.8111 39.0937C21.8291 39.0937 15.802 39.0937 9.77484 39.0937Z" fill="#1B1C1E"/>
<path d="M9.6847 44.8487C9.57183 44.8035 9.54926 44.6907 9.54926 44.5778C9.54926 42.8171 9.54926 41.0789 9.54926 39.3182C9.54926 39.2956 9.57183 39.2504 9.5944 39.2279C9.61698 39.2053 9.66212 39.2279 9.6847 39.2279C9.6847 41.1015 9.6847 42.9751 9.6847 44.8487Z" fill="#1B1C1E"/>
<path d="M32.1223 47.6736C32.348 47.1092 32.1675 46.5223 32.2126 45.958C32.2352 45.6419 32.2126 45.3259 32.3255 45.0099C32.3255 45.4162 32.3255 45.8225 32.3255 46.2289C32.3255 46.8383 32.3255 47.4478 32.3029 48.0573C32.2126 47.9444 32.1449 47.809 32.1223 47.6736Z" fill="#1B1C1E"/>
<path d="M42.5522 51.2589C43.5455 50.4688 44.4033 49.7239 45.1256 48.8886C51.4011 41.6425 48.9857 30.3783 40.2723 26.3602C39.8886 26.1797 39.7306 25.9991 39.6854 25.5476C39.1436 20.4234 34.7644 15.9538 29.6402 15.2541C27.9472 15.0283 26.2541 15.1412 24.5611 15.1412C21.1074 15.1186 17.631 15.1412 14.1773 15.1412C14.1321 15.1412 14.0644 15.1412 13.9967 15.1186C14.0193 14.8703 14.2224 14.8252 14.3579 14.7349C19.5498 10.8522 24.7417 6.96956 29.9336 3.08691C30.8366 2.43228 31.6041 2.43228 32.507 3.10949C38.9405 7.9628 45.3739 12.8161 51.8074 17.6694C52.462 18.166 52.7329 18.7981 52.7329 19.6108C52.7329 22.5679 52.7329 25.525 52.7329 28.4596C52.7329 35.2768 52.7329 42.1166 52.7329 48.9338C52.7329 50.5817 52.1009 51.2137 50.453 51.2137C47.8796 51.2589 45.3062 51.2589 42.5522 51.2589Z" fill="#1B1C1E"/>
<path d="M1.53534 52.5732C1.53534 51.5348 2.37056 50.6544 3.40894 50.6319C4.44733 50.6093 5.37284 51.5122 5.35027 52.5506C5.35027 53.589 4.49247 54.4468 3.43152 54.4468C2.39313 54.4694 1.53534 53.6341 1.53534 52.5732Z" fill="#1B1C1E"/>
<path d="M6.74994 53.6792C21.5582 53.6792 36.3664 53.6792 51.1747 53.6792C51.1747 53.7018 51.1747 53.7243 51.1747 53.7243C36.3664 53.7243 21.5582 53.7243 6.74994 53.7243C6.74994 53.7018 6.74994 53.7018 6.74994 53.6792Z" fill="#1B1C1E"/>
<path d="M52.9806 19.0494C52.9806 29.2978 52.9806 39.5462 52.9806 49.772C52.9581 49.772 52.9355 49.772 52.9355 49.772C52.9355 39.5236 52.9355 29.2752 52.9355 19.0268C52.9581 19.0268 52.9581 19.0268 52.9806 19.0494Z" fill="#1B1C1E"/>
<path d="M6.75043 51.4214C16.2539 51.4214 25.7574 51.4214 35.2608 51.4214C35.2608 51.444 35.2608 51.4666 35.2608 51.4666C25.7574 51.4666 16.2539 51.4666 6.773 51.4666C6.75043 51.444 6.75043 51.444 6.75043 51.4214Z" fill="#1B1C1E"/>
<path d="M28.2851 36.7236C22.1902 36.7236 16.0954 36.7236 10.0005 36.7236C9.95535 36.7688 9.93278 36.7688 9.88763 36.7236C10.0456 36.543 10.2714 36.6108 10.4745 36.6108C16.4114 36.6108 22.3482 36.6108 28.2851 36.6108C28.3302 36.6333 28.3302 36.6559 28.3302 36.6785C28.3077 36.7011 28.2851 36.7236 28.2851 36.7236Z" fill="#1B1C1E"/>
<path d="M16.6595 17.5388C16.8175 17.3582 17.0433 17.426 17.2464 17.426C20.7905 17.426 24.3345 17.426 27.8786 17.426C28.3075 17.426 28.7364 17.5163 29.1427 17.6065C24.9666 17.3582 20.813 17.6968 16.6369 17.6517C16.5918 17.6291 16.5918 17.6065 16.5918 17.584C16.6369 17.5614 16.6369 17.5388 16.6595 17.5388Z" fill="#1B1C1E"/>
<path d="M14.0866 15.3055C19.0076 15.3055 23.9061 15.3055 28.8271 15.3055C28.8271 15.328 28.8271 15.3506 28.8271 15.3506C23.9061 15.3506 19.0076 15.3506 14.0866 15.3506C14.0866 15.3506 14.0866 15.328 14.0866 15.3055Z" fill="#1B1C1E"/>
<path d="M51.2649 51.4874C48.4657 51.4874 45.6666 51.4874 42.8675 51.4874C42.8675 51.4648 42.8675 51.4422 42.8675 51.4422C45.6666 51.4422 48.4883 51.4422 51.2874 51.4422C51.2874 51.4422 51.2874 51.4648 51.2649 51.4874Z" fill="#1B1C1E"/>
<path d="M16.6595 17.5383C16.6595 17.5834 16.6595 17.606 16.6595 17.6511C14.3796 17.6511 12.0771 17.6511 9.79718 17.6511C9.79718 17.606 9.79718 17.5834 9.79718 17.5383C12.0771 17.5383 14.3796 17.5383 16.6595 17.5383Z" fill="#1B1C1E"/>
<path d="M48.4661 38.328C48.4661 39.1181 48.4661 39.8856 48.4661 40.6757C48.4435 40.6757 48.421 40.6757 48.421 40.6757C48.421 39.8856 48.421 39.1181 48.421 38.328C48.421 38.328 48.4435 38.328 48.4661 38.328Z" fill="#1B1C1E"/>
<path d="M9.88763 36.7231C9.93278 36.7231 9.95535 36.7231 10.0005 36.7231C10.0005 37.4003 10.0005 38.0549 10.0005 38.7321C9.95535 38.7321 9.93278 38.7321 9.88763 38.7321C9.88763 38.0549 9.88763 37.4003 9.88763 36.7231Z" fill="#1B1C1E"/>
<path d="M0.202698 53.0705C0.202698 52.7093 0.202698 52.3481 0.202698 51.9869C0.225271 51.9869 0.225271 51.9869 0.247844 51.9869C0.247844 52.3481 0.247844 52.7093 0.247844 53.0479C0.247844 53.0705 0.225271 53.0705 0.202698 53.0705Z" fill="#1B1C1E"/>
<path d="M28.8269 38.8472C28.5108 38.8472 28.1722 38.8472 27.8562 38.8472C27.8562 38.8246 27.8562 38.8021 27.8562 38.8021C28.1722 38.8021 28.4883 38.8021 28.8269 38.8021C28.8269 38.8021 28.8269 38.8246 28.8269 38.8472Z" fill="#1B1C1E"/>
<path d="M31.6712 0.244731C31.3325 0.244731 31.0165 0.244731 30.6779 0.244731C30.6779 0.222158 30.6779 0.222159 30.6779 0.199585C31.0165 0.199585 31.3325 0.199585 31.6712 0.199585C31.6712 0.199585 31.6712 0.222158 31.6712 0.244731Z" fill="#1B1C1E"/>
<path d="M46.2313 38.8727C46.4119 39.2791 46.4119 39.708 46.2313 40.1143C46.2313 39.708 46.2313 39.2791 46.2313 38.8727Z" fill="#1B1C1E"/>
<path d="M46.2308 38.8686C46.0276 38.6203 46.1405 38.3494 46.2308 38.0786C46.2308 38.3494 46.2308 38.5977 46.2308 38.8686Z" fill="#1B1C1E"/>
<path d="M46.2086 40.1118C46.2086 40.3376 46.2086 40.5407 46.2086 40.7664C46.1183 40.5407 46.0506 40.315 46.2086 40.1118Z" fill="#1B1C1E"/>
<path d="M36.1866 51.2842C36.0286 51.4874 35.8254 51.3745 35.6223 51.2842C35.8254 51.2842 36.006 51.2842 36.1866 51.2842Z" fill="#1B1C1E"/>
<path d="M3.02615 55.7341C2.91328 55.8019 2.77784 55.8019 2.6424 55.7341C2.77784 55.6664 2.89071 55.6664 3.02615 55.7341Z" fill="#1B1C1E"/>
<path d="M36.1857 51.2838C36.3211 51.1032 36.4791 51.1935 36.7049 51.171C36.5017 51.329 36.3211 51.2613 36.1857 51.2838Z" fill="#1B1C1E"/>
<path d="M29.6171 38.7133C29.73 38.6004 29.8429 38.6455 29.9783 38.6681C29.8654 38.8261 29.7526 38.7584 29.6171 38.7133Z" fill="#1B1C1E"/>
<path d="M28.2845 36.7278C28.2845 36.6827 28.2845 36.6601 28.2845 36.615C28.4199 36.615 28.5779 36.615 28.7134 36.615C28.7134 36.6375 28.7134 36.6827 28.7134 36.7053C28.5779 36.7053 28.4199 36.7278 28.2845 36.7278Z" fill="#1B1C1E"/>
<path d="M37.2467 28.6163C37.1565 28.5034 37.179 28.3905 37.2467 28.2325C37.337 28.368 37.337 28.4808 37.2467 28.6163Z" fill="#1B1C1E"/>
<path d="M4.10883 55.7989C4.01853 55.7989 3.81537 55.7989 3.81537 55.7763C3.7928 55.6409 3.92824 55.7086 3.99596 55.7086C4.04111 55.7086 4.08626 55.7312 4.1314 55.7312C4.1314 55.7312 4.1314 55.7763 4.10883 55.7989Z" fill="#1B1C1E"/>
<path d="M4.8768 36.4115C4.31246 36.4115 3.74813 36.4115 3.18379 36.4115C2.89033 36.4115 2.77746 36.3212 2.80004 36.0277C2.82261 35.3054 2.82261 34.5604 2.80004 33.8155C2.80004 33.5446 2.86776 33.4092 3.16121 33.4092C4.33504 33.4318 5.48629 33.4092 6.66011 33.4092C6.90842 33.4092 6.99871 33.4995 6.99871 33.7478C6.99871 34.5153 6.97614 35.2828 6.99871 36.0503C6.99871 36.3212 6.88585 36.4115 6.63754 36.3889C6.02805 36.4115 5.44114 36.4115 4.8768 36.4115Z" fill="#1B1C1E"/>
<path d="M7.04303 25.1033C10.5419 25.1033 14.0408 25.1033 17.5397 25.1033C23.7249 25.1033 29.91 25.1033 36.0952 25.1033C36.2984 25.1033 36.5015 25.1033 36.7047 25.1033C36.7047 25.1484 36.7047 25.171 36.7047 25.2162C36.5015 25.2162 36.2984 25.2162 36.1178 25.2162C26.7272 25.2162 17.314 25.2162 7.9234 25.2162C7.17847 25.2162 7.17847 25.2162 7.17847 25.9385C7.17847 27.4509 7.17847 28.9859 7.0656 30.4984C7.0656 28.6925 7.0656 26.8866 7.04303 25.1033C7.0656 25.0807 7.04303 25.1033 7.04303 25.1033Z" fill="#1B1C1E"/>
<path d="M9.68488 28.0573C9.68488 30.5404 9.70745 33.0461 9.70745 35.5291C9.70745 35.8 9.70745 36.0935 9.73002 36.3644C9.54943 36.2966 9.57201 36.1386 9.57201 35.9806C9.57201 33.3847 9.57201 30.7887 9.57201 28.1702C9.57201 28.125 9.59458 28.0573 9.61716 28.0121C9.59458 28.0347 9.63973 28.0573 9.68488 28.0573Z" fill="#1B1C1E"/>
<path d="M0.180847 39.0937C0.271141 39.0486 0.338863 38.9808 0.429158 38.9808C2.57364 38.9808 4.69556 38.9808 6.84004 39.0937C4.60526 39.0937 2.39305 39.0937 0.180847 39.0937Z" fill="#1B1C1E"/>
<path d="M0.180847 30.7439C2.39306 30.7439 4.60526 30.7439 6.86262 30.7439C6.81747 30.8116 6.81747 30.8568 6.7949 30.8568C4.69556 30.8568 2.59622 30.8568 0.496875 30.8568C0.361434 30.8568 0.248568 30.8342 0.180847 30.7439Z" fill="#1B1C1E"/>
<path d="M4.85394 33.3124C6.38738 33.3124 7.63049 33.2922 7.63049 33.2672C7.63049 33.2423 6.38738 33.2221 4.85394 33.2221C3.3205 33.2221 2.07739 33.2423 2.07739 33.2672C2.07739 33.2922 3.3205 33.3124 4.85394 33.3124Z" fill="#1B1C1E"/>
<path d="M7.11115 36.2309C7.11115 35.3505 7.11115 34.4475 7.11115 33.5672C7.13372 33.5672 7.15629 33.5672 7.15629 33.5672C7.15629 34.4701 7.15629 35.3505 7.15629 36.2534C7.13372 36.2534 7.11115 36.2534 7.11115 36.2309Z" fill="#1B1C1E"/>
<path d="M35.2608 48.2598C34.2224 48.2598 33.3646 47.4471 33.3421 46.3861C33.3195 45.3252 34.1547 44.4674 35.1931 44.4448C36.2541 44.4222 37.157 45.3026 37.157 46.3636C37.157 47.3568 36.2992 48.2372 35.2608 48.2598Z" fill="#1B1C1E"/>
<path d="M34.9445 43.0455C35.1251 42.8649 35.3283 42.8649 35.5089 43.0455C35.3283 43.0455 35.1251 43.0455 34.9445 43.0455Z" fill="#1B1C1E"/>
<path d="M34.945 43.0463C34.8095 43.2043 34.6515 43.1366 34.4258 43.1592C34.6289 42.9786 34.8095 43.0689 34.945 43.0463Z" fill="#1B1C1E"/>
<path d="M35.509 43.0432C35.6444 43.0432 35.8024 43.0432 36.0959 43.0432C35.8024 43.1786 35.6444 43.2012 35.509 43.0432Z" fill="#1B1C1E"/>
</svg>
